<?xml version="1.0" standalone="no"?>
<!DOCTYPE svg PUBLIC "-//W3C//DTD SVG 20010904//EN"
 "http://www.w3.org/TR/2001/REC-SVG-20010904/DTD/svg10.dtd">
<svg version="1.0" xmlns="http://www.w3.org/2000/svg"
 width="500.000000pt" height="500.000000pt" viewBox="0 0 500.000000 500.000000"
 preserveAspectRatio="xMidYMid meet">

<g transform="translate(0.000000,500.000000) scale(0.100000,-0.100000)"
fill="#000000" stroke="none">
<path d="M2235 4579 c-212 -8 -320 -18 -575 -55 -296 -42 -292 -41 -390 -139
l-83 -83 47 -1794 c26 -986 49 -1794 51 -1796 1 -2 50 -6 106 -10 97 -7 104
-9 107 -29 4 -26 6 -26 325 -48 l217 -15 55 27 55 27 0 621 0 621 83 -8 c45
-5 130 -14 189 -21 l107 -12 384 -620 383 -620 40 -8 c21 -5 47 -13 57 -18 12
-6 25 -4 41 6 23 15 25 15 42 -14 16 -27 47 -41 94 -41 10 0 86 39 169 87 170
96 222 139 449 374 l141 145 -61 80 c-125 162 -289 351 -527 608 -91 98 -167
184 -169 191 -2 8 8 35 21 62 119 235 221 694 269 1208 15 161 17 871 2 975
l-9 65 -51 9 -52 9 -7 74 c-4 40 -8 73 -10 73 -2 0 -61 7 -132 15 -202 23
-495 44 -783 55 -286 11 -300 11 -585 -1z m720 -109 c205 -11 382 -24 567 -41
98 -10 117 -14 121 -30 3 -10 3 -19 1 -21 -2 -2 -67 2 -146 8 -622 53 -1229
42 -1714 -31 -230 -34 -228 -33 -308 -114 l-70 -70 12 -448 c43 -1580 72
-2711 72 -2835 l0 -91 -51 6 c-29 4 -53 8 -54 9 -1 2 -22 779 -47 1728 l-46
1725 52 53 c30 31 65 56 86 62 92 26 533 80 765 93 129 8 590 6 760 -3z m-360
-1387 c7 -94 2 -389 -6 -398 -10 -9 -404 -45 -496 -45 l-96 0 7 213 c3 116 9
236 12 264 l7 53 201 3 c110 1 238 3 283 5 l81 2 7 -97z m207 37 c16 -135 21
-397 8 -497 -7 -57 -15 -103 -19 -103 -4 0 -94 -9 -201 -19 -305 -31 -368 -34
-458 -21 -96 13 -112 18 -112 34 0 9 49 16 161 24 231 17 472 44 486 54 23 18
38 151 37 344 -1 106 -4 204 -8 218 -7 27 -7 27 46 24 l53 -3 7 -55z m249
-1840 c192 -311 344 -567 338 -569 -6 -2 -17 3 -24 10 -13 14 -705 1127 -705
1135 0 2 9 0 21 -4 12 -5 149 -217 370 -572z"/>
</g>
</svg>
